<mxfile host="app.diagrams.net" modified="2023-12-25T16:20:49.227Z" agent="Mozilla/5.0 (Windows NT 10.0; Win64; x64) AppleWebKit/537.36 (KHTML, like Gecko) Chrome/120.0.0.0 Safari/537.36" etag="ej8KjQZ2QSyGPCj7pdWq" version="22.1.11" type="google">
  <diagram name="第 1 页" id="TZ4QXJAehtu5jV5RwEQ6">
    <mxGraphModel grid="1" page="1" gridSize="10" guides="1" tooltips="1" connect="1" arrows="1" fold="1" pageScale="1" pageWidth="827" pageHeight="1169" math="0" shadow="0">
      <root>
        <mxCell id="0" />
        <mxCell id="1" parent="0" />
        <mxCell id="RWm-naZo-h4L81DLPVIR-1" value="管理員" style="shape=umlActor;verticalLabelPosition=bottom;verticalAlign=top;html=1;outlineConnect=0;" vertex="1" parent="1">
          <mxGeometry x="80" y="140" width="30" height="60" as="geometry" />
        </mxCell>
        <mxCell id="RWm-naZo-h4L81DLPVIR-2" value=":CarCatalog" style="rounded=0;whiteSpace=wrap;html=1;fillColor=#d5e8d4;strokeColor=#82b366;" vertex="1" parent="1">
          <mxGeometry x="150" y="160" width="90" height="50" as="geometry" />
        </mxCell>
        <mxCell id="RWm-naZo-h4L81DLPVIR-3" value=":car" style="rounded=0;whiteSpace=wrap;html=1;fillColor=#d5e8d4;strokeColor=#82b366;" vertex="1" parent="1">
          <mxGeometry x="300" y="280" width="60" height="40" as="geometry" />
        </mxCell>
        <mxCell id="RWm-naZo-h4L81DLPVIR-4" value="" style="rounded=0;whiteSpace=wrap;html=1;fillColor=#d5e8d4;strokeColor=#82b366;" vertex="1" parent="1">
          <mxGeometry x="90" y="230" width="10" height="200" as="geometry" />
        </mxCell>
        <mxCell id="RWm-naZo-h4L81DLPVIR-5" value="" style="endArrow=none;dashed=1;html=1;rounded=0;entryX=0.5;entryY=1;entryDx=0;entryDy=0;" edge="1" parent="1" source="RWm-naZo-h4L81DLPVIR-6" target="RWm-naZo-h4L81DLPVIR-2">
          <mxGeometry width="50" height="50" relative="1" as="geometry">
            <mxPoint x="195" y="420" as="sourcePoint" />
            <mxPoint x="220" y="270" as="targetPoint" />
          </mxGeometry>
        </mxCell>
        <mxCell id="RWm-naZo-h4L81DLPVIR-7" value="" style="endArrow=none;dashed=1;html=1;rounded=0;entryX=0.5;entryY=1;entryDx=0;entryDy=0;" edge="1" parent="1" target="RWm-naZo-h4L81DLPVIR-6">
          <mxGeometry width="50" height="50" relative="1" as="geometry">
            <mxPoint x="195" y="420" as="sourcePoint" />
            <mxPoint x="195" y="210" as="targetPoint" />
          </mxGeometry>
        </mxCell>
        <mxCell id="RWm-naZo-h4L81DLPVIR-6" value="" style="rounded=0;whiteSpace=wrap;html=1;fillColor=#d5e8d4;strokeColor=#82b366;" vertex="1" parent="1">
          <mxGeometry x="185" y="270" width="20" height="40" as="geometry" />
        </mxCell>
        <mxCell id="RWm-naZo-h4L81DLPVIR-8" value="" style="endArrow=classic;html=1;rounded=0;exitX=1;exitY=0.25;exitDx=0;exitDy=0;entryX=0;entryY=0.25;entryDx=0;entryDy=0;" edge="1" parent="1" source="RWm-naZo-h4L81DLPVIR-4" target="RWm-naZo-h4L81DLPVIR-6">
          <mxGeometry width="50" height="50" relative="1" as="geometry">
            <mxPoint x="170" y="320" as="sourcePoint" />
            <mxPoint x="220" y="270" as="targetPoint" />
          </mxGeometry>
        </mxCell>
        <mxCell id="RWm-naZo-h4L81DLPVIR-9" value="" style="endArrow=classic;html=1;rounded=0;exitX=1;exitY=0.75;exitDx=0;exitDy=0;entryX=0;entryY=0.5;entryDx=0;entryDy=0;" edge="1" parent="1" source="RWm-naZo-h4L81DLPVIR-6" target="RWm-naZo-h4L81DLPVIR-3">
          <mxGeometry width="50" height="50" relative="1" as="geometry">
            <mxPoint x="110" y="290" as="sourcePoint" />
            <mxPoint x="195" y="290" as="targetPoint" />
          </mxGeometry>
        </mxCell>
        <mxCell id="RWm-naZo-h4L81DLPVIR-10" value="addCar()" style="text;html=1;align=center;verticalAlign=middle;resizable=0;points=[];autosize=1;strokeColor=none;fillColor=none;" vertex="1" parent="1">
          <mxGeometry x="110" y="260" width="70" height="30" as="geometry" />
        </mxCell>
        <mxCell id="RWm-naZo-h4L81DLPVIR-12" value="&amp;lt;&amp;lt;creat&amp;gt;&amp;gt;" style="text;html=1;align=center;verticalAlign=middle;resizable=0;points=[];autosize=1;strokeColor=none;fillColor=none;" vertex="1" parent="1">
          <mxGeometry x="210" y="278" width="80" height="30" as="geometry" />
        </mxCell>
      </root>
    </mxGraphModel>
  </diagram>
</mxfile>
